# Blender 4.2.3 LTS
# www.blender.org
mtllib espatula.mtl
o Cylinder
v 0.000000 0.007878 -0.101231
v 0.000000 0.480347 -0.101231
v 0.020090 0.007878 -0.099252
v 0.020090 0.480347 -0.099252
v 0.039407 0.007878 -0.093392
v 0.039407 0.480347 -0.093392
v 0.057210 0.007878 -0.083876
v 0.057210 0.480347 -0.083876
v 0.072815 0.007878 -0.071070
v 0.072815 0.480347 -0.071070
v 0.085621 0.007878 -0.055465
v 0.085621 0.480347 -0.055465
v 0.095137 0.007878 -0.037662
v 0.095137 0.480347 -0.037662
v 0.100997 0.007878 -0.018345
v 0.100997 0.480347 -0.018345
v 0.102976 0.007878 0.001745
v 0.102976 0.480347 0.001745
v 0.100997 0.007878 0.021835
v 0.100997 0.480347 0.021835
v 0.095137 0.007878 0.041152
v 0.095137 0.480347 0.041152
v 0.085621 0.007878 0.058955
v 0.085621 0.480347 0.058955
v 0.072815 0.007878 0.074560
v 0.072815 0.480347 0.074560
v 0.057210 0.007878 0.087366
v 0.057210 0.480347 0.087366
v 0.039407 0.007878 0.096882
v 0.039407 0.480347 0.096882
v 0.020090 0.007878 0.102742
v 0.020090 0.480347 0.102742
v 0.000000 0.007878 0.104721
v 0.000000 0.480347 0.104721
v -0.020090 0.007878 0.102742
v -0.020090 0.480347 0.102742
v -0.039407 0.007878 0.096882
v -0.039407 0.480347 0.096882
v -0.057210 0.007878 0.087366
v -0.057210 0.480347 0.087366
v -0.072815 0.007878 0.074560
v -0.072815 0.480347 0.074560
v -0.085621 0.007878 0.058955
v -0.085621 0.480347 0.058955
v -0.095137 0.007878 0.041152
v -0.095137 0.480347 0.041152
v -0.100997 0.007878 0.021835
v -0.100997 0.480347 0.021835
v -0.102976 0.007878 0.001745
v -0.102976 0.480347 0.001745
v -0.100997 0.007878 -0.018345
v -0.100997 0.480347 -0.018345
v -0.095137 0.007878 -0.037662
v -0.095137 0.480347 -0.037662
v -0.085621 0.007878 -0.055465
v -0.085621 0.480347 -0.055465
v -0.072815 0.007878 -0.071070
v -0.072815 0.480347 -0.071070
v -0.057210 0.007878 -0.083876
v -0.057210 0.480347 -0.083876
v -0.039407 0.007878 -0.093392
v -0.039407 0.480347 -0.093392
v -0.020090 0.007878 -0.099252
v -0.020090 0.480347 -0.099252
vn -0.0000 -0.3799 -0.9250
vn -0.0000 0.3799 -0.9250
vn 0.1805 -0.3799 -0.9073
vn 0.1805 0.3799 -0.9073
vn 0.3540 -0.3799 -0.8546
vn 0.3540 0.3799 -0.8546
vn 0.5139 -0.3799 -0.7691
vn 0.5139 0.3799 -0.7691
vn 0.6541 -0.3799 -0.6541
vn 0.6541 0.3799 -0.6541
vn 0.7691 -0.3799 -0.5139
vn 0.7691 0.3799 -0.5139
vn 0.8546 -0.3799 -0.3540
vn 0.8546 0.3799 -0.3540
vn 0.9073 -0.3799 -0.1805
vn 0.9073 0.3799 -0.1805
vn 0.9250 -0.3799 -0.0000
vn 0.9250 0.3799 -0.0000
vn 0.9073 -0.3799 0.1805
vn 0.9073 0.3799 0.1805
vn 0.8546 -0.3799 0.3540
vn 0.8546 0.3799 0.3540
vn 0.7691 -0.3799 0.5139
vn 0.7691 0.3799 0.5139
vn 0.6541 -0.3799 0.6541
vn 0.6541 0.3799 0.6541
vn 0.5139 -0.3799 0.7691
vn 0.5139 0.3799 0.7691
vn 0.3540 -0.3799 0.8546
vn 0.3540 0.3799 0.8546
vn 0.1805 -0.3799 0.9073
vn 0.1805 0.3799 0.9073
vn -0.0000 -0.3799 0.9250
vn -0.0000 0.3799 0.9250
vn -0.1805 -0.3799 0.9073
vn -0.1805 0.3799 0.9073
vn -0.3540 -0.3799 0.8546
vn -0.3540 0.3799 0.8546
vn -0.5139 -0.3799 0.7691
vn -0.5139 0.3799 0.7691
vn -0.6541 -0.3799 0.6541
vn -0.6541 0.3799 0.6541
vn -0.7691 -0.3799 0.5139
vn -0.7691 0.3799 0.5139
vn -0.8546 -0.3799 0.3540
vn -0.8546 0.3799 0.3540
vn -0.9073 -0.3799 0.1805
vn -0.9073 0.3799 0.1805
vn -0.9250 -0.3799 -0.0000
vn -0.9250 0.3799 -0.0000
vn -0.9073 -0.3799 -0.1805
vn -0.9073 0.3799 -0.1805
vn -0.8546 -0.3799 -0.3540
vn -0.8546 0.3799 -0.3540
vn -0.7691 -0.3799 -0.5139
vn -0.7691 0.3799 -0.5139
vn -0.6541 -0.3799 -0.6541
vn -0.6541 0.3799 -0.6541
vn -0.5139 -0.3799 -0.7691
vn -0.5139 0.3799 -0.7691
vn -0.3540 -0.3799 -0.8546
vn -0.3540 0.3799 -0.8546
vn -0.1805 -0.3799 -0.9073
vn -0.1805 0.3799 -0.9073
vt 1.000000 0.500000
vt 1.000000 1.000000
vt 0.968750 1.000000
vt 0.968750 0.500000
vt 0.937500 1.000000
vt 0.937500 0.500000
vt 0.906250 1.000000
vt 0.906250 0.500000
vt 0.875000 1.000000
vt 0.875000 0.500000
vt 0.843750 1.000000
vt 0.843750 0.500000
vt 0.812500 1.000000
vt 0.812500 0.500000
vt 0.781250 1.000000
vt 0.781250 0.500000
vt 0.750000 1.000000
vt 0.750000 0.500000
vt 0.718750 1.000000
vt 0.718750 0.500000
vt 0.687500 1.000000
vt 0.687500 0.500000
vt 0.656250 1.000000
vt 0.656250 0.500000
vt 0.625000 1.000000
vt 0.625000 0.500000
vt 0.593750 1.000000
vt 0.593750 0.500000
vt 0.562500 1.000000
vt 0.562500 0.500000
vt 0.531250 1.000000
vt 0.531250 0.500000
vt 0.500000 1.000000
vt 0.500000 0.500000
vt 0.468750 1.000000
vt 0.468750 0.500000
vt 0.437500 1.000000
vt 0.437500 0.500000
vt 0.406250 1.000000
vt 0.406250 0.500000
vt 0.375000 1.000000
vt 0.375000 0.500000
vt 0.343750 1.000000
vt 0.343750 0.500000
vt 0.312500 1.000000
vt 0.312500 0.500000
vt 0.281250 1.000000
vt 0.281250 0.500000
vt 0.250000 1.000000
vt 0.250000 0.500000
vt 0.218750 1.000000
vt 0.218750 0.500000
vt 0.187500 1.000000
vt 0.187500 0.500000
vt 0.156250 1.000000
vt 0.156250 0.500000
vt 0.125000 1.000000
vt 0.125000 0.500000
vt 0.093750 1.000000
vt 0.093750 0.500000
vt 0.062500 1.000000
vt 0.062500 0.500000
vt 0.296822 0.485388
vt 0.250000 0.490000
vt 0.203178 0.485388
vt 0.158156 0.471731
vt 0.116663 0.449553
vt 0.080294 0.419706
vt 0.050447 0.383337
vt 0.028269 0.341844
vt 0.014612 0.296822
vt 0.010000 0.250000
vt 0.014612 0.203178
vt 0.028269 0.158156
vt 0.050447 0.116663
vt 0.080294 0.080294
vt 0.116663 0.050447
vt 0.158156 0.028269
vt 0.203178 0.014612
vt 0.250000 0.010000
vt 0.296822 0.014612
vt 0.341844 0.028269
vt 0.383337 0.050447
vt 0.419706 0.080294
vt 0.449553 0.116663
vt 0.471731 0.158156
vt 0.485388 0.203178
vt 0.490000 0.250000
vt 0.485388 0.296822
vt 0.471731 0.341844
vt 0.449553 0.383337
vt 0.419706 0.419706
vt 0.383337 0.449553
vt 0.341844 0.471731
vt 0.031250 1.000000
vt 0.031250 0.500000
vt 0.000000 1.000000
vt 0.000000 0.500000
vt 0.750000 0.490000
vt 0.796822 0.485388
vt 0.841844 0.471731
vt 0.883337 0.449553
vt 0.919706 0.419706
vt 0.949553 0.383337
vt 0.971731 0.341844
vt 0.985388 0.296822
vt 0.990000 0.250000
vt 0.985388 0.203178
vt 0.971731 0.158156
vt 0.949553 0.116663
vt 0.919706 0.080294
vt 0.883337 0.050447
vt 0.841844 0.028269
vt 0.796822 0.014612
vt 0.750000 0.010000
vt 0.703178 0.014612
vt 0.658156 0.028269
vt 0.616663 0.050447
vt 0.580294 0.080294
vt 0.550447 0.116663
vt 0.528269 0.158156
vt 0.514612 0.203178
vt 0.510000 0.250000
vt 0.514612 0.296822
vt 0.528269 0.341844
vt 0.550447 0.383337
vt 0.580294 0.419706
vt 0.616663 0.449553
vt 0.658156 0.471731
vt 0.703178 0.485388
s 1
usemtl Material.003
f 1/1/1 2/2/2 4/3/4 3/4/3
f 3/4/3 4/3/4 6/5/6 5/6/5
f 5/6/5 6/5/6 8/7/8 7/8/7
f 7/8/7 8/7/8 10/9/10 9/10/9
f 9/10/9 10/9/10 12/11/12 11/12/11
f 11/12/11 12/11/12 14/13/14 13/14/13
f 13/14/13 14/13/14 16/15/16 15/16/15
f 15/16/15 16/15/16 18/17/18 17/18/17
f 17/18/17 18/17/18 20/19/20 19/20/19
f 19/20/19 20/19/20 22/21/22 21/22/21
f 21/22/21 22/21/22 24/23/24 23/24/23
f 23/24/23 24/23/24 26/25/26 25/26/25
f 25/26/25 26/25/26 28/27/28 27/28/27
f 27/28/27 28/27/28 30/29/30 29/30/29
f 29/30/29 30/29/30 32/31/32 31/32/31
f 31/32/31 32/31/32 34/33/34 33/34/33
f 33/34/33 34/33/34 36/35/36 35/36/35
f 35/36/35 36/35/36 38/37/38 37/38/37
f 37/38/37 38/37/38 40/39/40 39/40/39
f 39/40/39 40/39/40 42/41/42 41/42/41
f 41/42/41 42/41/42 44/43/44 43/44/43
f 43/44/43 44/43/44 46/45/46 45/46/45
f 45/46/45 46/45/46 48/47/48 47/48/47
f 47/48/47 48/47/48 50/49/50 49/50/49
f 49/50/49 50/49/50 52/51/52 51/52/51
f 51/52/51 52/51/52 54/53/54 53/54/53
f 53/54/53 54/53/54 56/55/56 55/56/55
f 55/56/55 56/55/56 58/57/58 57/58/57
f 57/58/57 58/57/58 60/59/60 59/60/59
f 59/60/59 60/59/60 62/61/62 61/62/61
f 4/63/4 2/64/2 64/65/64 62/66/62 60/67/60 58/68/58 56/69/56 54/70/54 52/71/52 50/72/50 48/73/48 46/74/46 44/75/44 42/76/42 40/77/40 38/78/38 36/79/36 34/80/34 32/81/32 30/82/30 28/83/28 26/84/26 24/85/24 22/86/22 20/87/20 18/88/18 16/89/16 14/90/14 12/91/12 10/92/10 8/93/8 6/94/6
f 61/62/61 62/61/62 64/95/64 63/96/63
f 63/96/63 64/95/64 2/97/2 1/98/1
f 1/99/1 3/100/3 5/101/5 7/102/7 9/103/9 11/104/11 13/105/13 15/106/15 17/107/17 19/108/19 21/109/21 23/110/23 25/111/25 27/112/27 29/113/29 31/114/31 33/115/33 35/116/35 37/117/37 39/118/39 41/119/41 43/120/43 45/121/45 47/122/47 49/123/49 51/124/51 53/125/53 55/126/55 57/127/57 59/128/59 61/129/61 63/130/63
o Plane
v -3.985399 0.000000 3.985399
v 3.985399 0.000000 3.985399
v -3.985399 0.000000 -3.985399
v 3.985399 0.000000 -3.985399
vn -0.0000 1.0000 -0.0000
vt 0.000000 0.000000
vt 1.000000 0.000000
vt 1.000000 1.000000
vt 0.000000 1.000000
s 0
f 65/131/65 66/132/65 68/133/65 67/134/65
o Cube
v -0.009161 0.480890 0.085571
v -0.009161 1.761071 0.085571
v -0.009161 0.480890 -0.082081
v -0.009161 1.761071 -0.082081
v 0.009161 0.480890 0.085571
v 0.009161 1.761071 0.085571
v 0.009161 0.480890 -0.082081
v 0.009161 1.761071 -0.082081
vn -0.9940 -0.0142 0.1086
vn -0.9940 0.0142 0.1086
vn -0.9940 -0.0142 -0.1086
vn -0.9940 0.0142 -0.1086
vn 0.9940 -0.0142 0.1086
vn 0.9940 0.0142 0.1086
vn 0.9940 -0.0142 -0.1086
vn 0.9940 0.0142 -0.1086
vt 0.375000 0.000000
vt 0.625000 0.000000
vt 0.625000 0.250000
vt 0.375000 0.250000
vt 0.625000 0.500000
vt 0.375000 0.500000
vt 0.625000 0.750000
vt 0.375000 0.750000
vt 0.625000 1.000000
vt 0.375000 1.000000
vt 0.125000 0.500000
vt 0.125000 0.750000
vt 0.875000 0.500000
vt 0.875000 0.750000
s 1
usemtl Material.002
f 69/135/66 70/136/67 72/137/69 71/138/68
f 71/138/68 72/137/69 76/139/73 75/140/72
f 75/140/72 76/139/73 74/141/71 73/142/70
f 73/142/70 74/141/71 70/143/67 69/144/66
f 71/145/68 75/140/72 73/142/70 69/146/66
f 76/139/73 72/147/69 70/148/67 74/141/71
o Cube.001
v -0.014037 1.750842 0.436003
v -0.014037 2.619359 0.436003
v -0.014037 1.750842 -0.432513
v -0.014037 2.619359 -0.432513
v 0.014037 1.750842 0.436003
v 0.014037 2.787543 0.436003
v 0.014037 1.750842 -0.432513
v 0.014037 2.787543 -0.432513
v 0.014037 1.945162 -0.167236
v -0.014037 1.945162 -0.167236
v 0.014037 2.505660 -0.167236
v -0.014037 2.505660 -0.167236
v 0.014037 2.505660 -0.322994
v -0.014037 2.505660 -0.322994
v 0.014037 1.945162 -0.322994
v -0.014037 1.945162 -0.322994
v -0.014037 2.505660 -0.076134
v -0.014037 2.505660 0.079624
v -0.014037 1.945162 0.079624
v -0.014037 1.945162 -0.076134
v 0.014037 1.945162 0.079624
v 0.014037 1.945162 -0.076134
v 0.014037 2.505660 0.079624
v 0.014037 2.505660 -0.076134
v -0.014037 1.945162 0.334521
v -0.014037 1.945162 0.178762
v -0.014037 2.505660 0.334521
v -0.014037 2.505660 0.178762
v 0.014037 1.945162 0.334521
v 0.014037 2.505660 0.334521
v 0.014037 1.945162 0.178762
v 0.014037 2.505660 0.178762
vn -1.0000 -0.0000 -0.0000
vn -0.0000 -0.0000 -1.0000
vn 1.0000 -0.0000 -0.0000
vn -0.0000 -0.0000 1.0000
vn -0.0000 -1.0000 -0.0000
vn -0.9864 0.1646 -0.0000
vn -0.0000 1.0000 -0.0000
vt 0.592272 0.147417
vt 0.592272 0.173641
vt 0.430935 0.173641
vt 0.430934 0.147417
vt 0.592272 0.102583
vt 0.430934 0.102583
vt 0.430934 0.074046
vt 0.592272 0.074046
vt 0.375000 0.250000
vt 0.375000 0.000000
vt 0.625000 0.000000
vt 0.592272 0.029211
vt 0.430935 0.029211
vt 0.430935 0.218475
vt 0.625000 0.250000
vt 0.625000 0.500000
vt 0.375000 0.500000
vt 0.421860 0.576359
vt 0.375000 0.750000
vt 0.557024 0.531525
vt 0.421860 0.531525
vt 0.625000 0.750000
vt 0.625000 1.000000
vt 0.375000 1.000000
vt 0.125000 0.500000
vt 0.125000 0.750000
vt 0.875000 0.500000
vt 0.875000 0.750000
vt 0.375000 0.363053
vt 0.375000 0.386947
vt 0.625000 0.386947
vt 0.625000 0.363053
vt 0.421860 0.602583
vt 0.557024 0.576359
vt 0.557024 0.602583
vt 0.421860 0.647417
vt 0.421860 0.675954
vt 0.421860 0.720789
vt 0.557024 0.720788
vt 0.557024 0.675954
vt 0.557024 0.647417
vt 0.592272 0.218475
vt 0.238053 0.750000
vt 0.261947 0.750000
vt 0.261947 0.500000
vt 0.238053 0.500000
vt 0.375000 0.863053
vt 0.375000 0.886947
vt 0.625000 0.886947
vt 0.625000 0.863053
vt 0.738053 0.750000
vt 0.761947 0.750000
vt 0.761947 0.500000
vt 0.738053 0.500000
vt 0.625000 0.386947
vt 0.375000 0.363053
vt 0.375000 0.863053
vt 0.238053 0.500000
vt 0.238053 0.750000
vt 0.261947 0.750000
vt 0.761947 0.500000
vt 0.738053 0.500000
vt 0.761947 0.750000
vt 0.625000 0.386947
vt 0.625000 0.863053
vt 0.738053 0.750000
s 0
usemtl Material.001
f 93/149/74 88/150/74 86/151/74 96/152/74
f 94/153/74 95/154/74 102/155/74 104/156/74
f 79/157/74 77/158/74 78/159/74 88/150/74 93/149/74 94/153/74 104/156/74 103/160/74 101/161/74 102/155/74 95/154/74 96/152/74 86/151/74 92/162/74
f 79/157/75 80/163/75 84/164/75 83/165/75
f 85/166/76 81/167/76 83/165/76 84/164/76 89/168/76 91/169/76
f 81/167/77 82/170/77 78/171/77 77/172/77
f 79/173/78 83/165/78 81/167/78 77/174/78
f 84/164/79 80/175/79 78/176/79 82/170/79
f 92/177/77 91/178/77 89/179/77 90/180/77
f 98/181/76 85/166/76 87/182/76 100/183/76
f 87/182/76 89/168/76 84/164/76 82/170/76 81/167/76 85/166/76 98/181/76 97/184/76 107/185/76 105/186/76 106/187/76 108/188/76 99/189/76 100/183/76
f 107/185/76 97/184/76 99/189/76 108/188/76
f 78/159/74 80/163/74 79/157/74 92/162/74 90/190/74 88/150/74
f 86/191/80 85/192/80 91/193/80 92/194/80
f 85/195/75 86/196/75 88/197/75 87/198/75
f 87/199/78 88/200/78 90/201/78 89/202/78
f 100/203/77 93/180/77 96/204/77 98/178/77
f 94/197/75 99/198/75 97/205/75 95/196/75
f 96/206/80 95/207/80 97/208/80 98/193/80
f 93/209/78 100/210/78 99/199/78 94/211/78
f 104/180/77 102/204/77 107/178/77 108/212/77
f 105/205/75 101/196/75 103/197/75 106/213/75
f 102/206/80 101/207/80 105/208/80 107/193/80
f 106/214/78 103/211/78 104/209/78 108/202/78
